<svg width="24" height="24" viewBox="0 0 24 24" fill="none" xmlns="http://www.w3.org/2000/svg">
<path d="M18.02 11.14V8.56C18.02 5.23525 15.3248 2.54 12 2.54C8.67527 2.54 5.98002 5.23525 5.98002 8.56V11.14C5.98002 13.978 3.40002 14.666 3.40002 16.3C3.40002 17.762 6.75402 18.88 12 18.88C17.246 18.88 20.6 17.762 20.6 16.3C20.6 14.666 18.02 13.978 18.02 11.14Z" stroke="black" stroke-width="2.064" stroke-miterlimit="10" stroke-linecap="round"/>
<path d="M12 20.563C11.1305 20.563 10.3135 20.5338 9.54468 20.477C9.88108 21.5501 10.8754 22.2804 12 22.2804C13.1246 22.2804 14.1189 21.5501 14.4553 20.477C13.6864 20.5338 12.8694 20.563 12 20.563Z" fill="black"/>
</svg>
