<svg width="20" height="20" viewBox="0 0 20 20" fill="none" xmlns="http://www.w3.org/2000/svg">
<path d="M19.2007 9.59869C19.1999 4.49198 15.2013 0.279691 10.1015 0.0132787C5.00173 -0.253134 0.585979 3.51958 0.0530808 8.59842C-0.479818 13.6773 3.05667 18.2844 8.10067 19.0823L8.10067 12.3737H5.66347V9.59869H8.10067V7.48369C8.10067 5.07769 9.53407 3.74869 11.7265 3.74869C12.4465 3.75868 13.1648 3.82125 13.8757 3.93589V6.29869L12.6649 6.29869C12.2469 6.24319 11.8264 6.38077 11.5221 6.67259C11.2178 6.96441 11.0627 7.37879 11.1007 7.79869V9.59869H13.7635L13.3375 12.3737H11.1007L11.1007 19.0823C15.7661 18.3443 19.2014 14.3221 19.2007 9.59869Z" fill="#4C8AFF"/>
</svg>
