<svg width="211" height="67" viewBox="0 0 211 67" fill="none" xmlns="http://www.w3.org/2000/svg">
<g clip-path="url(#clip0_1_129)">
<path d="M22.4445 56.3583L27.1359 48.3615C27.7904 47.2499 29.0996 47.2499 29.7422 48.3615L34.4334 56.3583C35.1002 57.5007 34.4699 59.1371 33.3424 59.1371H23.5355C22.4081 59.1371 21.7656 57.5007 22.4445 56.3583Z" fill="#873AAA"/>
<path d="M43.0022 55.5573L37.3035 45.8471L34.5445 41.1473L29.5611 32.6495C29.1366 31.928 28.2878 31.928 27.8711 32.6495L14.4301 55.5573C13.9899 56.2989 14.4065 57.3611 15.1375 57.3611H17.7707C18.4781 57.3611 19.1384 56.9402 19.5629 56.2187L28.0283 41.7986C28.3742 41.2174 29.0659 41.2174 29.4039 41.7986L31.7855 45.8471L34.5445 50.5469L37.8694 56.2187C38.2939 56.9402 38.9541 57.3611 39.6615 57.3611H42.2947C43.0257 57.3611 43.4345 56.2989 43.0022 55.5573Z" fill="url(#paint0_linear_1_129)"/>
<path d="M43.0022 23.1093L37.3035 32.8195L34.5445 37.5193L29.5611 46.0171C29.1366 46.7386 28.2878 46.7386 27.8711 46.0171L14.4301 23.1093C13.9899 22.3677 14.4065 21.3055 15.1375 21.3055H17.7707C18.4781 21.3055 19.1384 21.7264 19.5629 22.4479L28.0283 36.868C28.3742 37.4493 29.0659 37.4493 29.4039 36.868L31.7855 32.8195L34.5445 28.1197L37.8694 22.4479C38.2939 21.7264 38.9541 21.3055 39.6615 21.3055H42.2947C43.0257 21.3055 43.4345 22.3677 43.0022 23.1093Z" fill="url(#paint1_linear_1_129)"/>
</g>
<path d="M50.6 30.3H55.136L55.136 46.788H61.976V51L50.6 51L50.6 30.3ZM63.884 46.788V51H75.404V46.788L63.884 46.788ZM78.6378 30.3V48.552L82.7418 51H90.1578V46.788L83.1738 46.788V30.3H78.6378ZM103.442 30.3V48.552L99.3738 51H91.9218V46.788H98.9058V30.3H103.442ZM109.909 30.3H114.013L121.429 37.284V42.72L114.445 36.132L114.445 51H109.909V30.3ZM134.713 30.3H130.645L123.193 37.284V42.72L130.177 36.132V51H134.713V30.3ZM141.901 30.3L146.005 30.3L153.421 37.284V42.72L146.437 35.988V51H141.901V30.3ZM162.169 45.168V30.3H166.705V51H162.457L155.041 43.872V38.616L162.169 45.168ZM173.173 30.3L177.709 30.3V51L173.173 51V30.3Z" fill="white"/>
<defs>
<linearGradient id="paint0_linear_1_129" x1="14.2499" y1="44.7348" x2="43.1789" y2="44.7348" gradientUnits="userSpaceOnUse">
<stop stop-color="#873AAA"/>
<stop offset="1" stop-color="#DF007F"/>
</linearGradient>
<linearGradient id="paint1_linear_1_129" x1="14.2499" y1="33.9319" x2="43.1789" y2="33.9319" gradientUnits="userSpaceOnUse">
<stop stop-color="#873AAA"/>
<stop offset="1" stop-color="#DF007F"/>
</linearGradient>
<clipPath id="clip0_1_129">
<rect width="57" height="59" fill="white"/>
</clipPath>
</defs>
</svg>
