<svg width="32" height="32" viewBox="0 0 32 32" fill="none" xmlns="http://www.w3.org/2000/svg">
<path d="M26.4004 10.4C27.284 10.4 28.0004 11.1164 28.0004 12V20.8C28.0004 21.6837 27.284 22.4 26.4004 22.4L24.8004 22.4V26.4L19.2004 22.4H14.4004" stroke="#CE0A86" stroke-width="1.92" stroke-miterlimit="10" stroke-linecap="round"/>
<path d="M21.6 4.8L5.6 4.8C4.71634 4.8 4 5.51635 4 6.4L4 16.8C4 17.6837 4.71634 18.4 5.6 18.4H8V24L14.4 18.4L21.6 18.4C22.4837 18.4 23.2 17.6837 23.2 16.8L23.2 6.4C23.2 5.51635 22.4837 4.8 21.6 4.8Z" stroke="#CE0A86" stroke-width="1.92" stroke-miterlimit="10" stroke-linecap="round"/>
</svg>
