<svg width="285" height="61" viewBox="0 0 285 61" fill="none" xmlns="http://www.w3.org/2000/svg">
<g clip-path="url(#clip0_1_257)">
<path d="M13.7817 56.2509L21.1964 43.6187C22.2309 41.8628 24.3002 41.8628 25.3158 43.6187L32.7304 56.2509C33.7843 58.0555 32.788 60.6405 31.006 60.6405H15.506C13.7242 60.6405 12.7087 58.0555 13.7817 56.2509Z" fill="#873AAA"/>
<path d="M46.2733 54.9857L37.2664 39.6468L32.9058 32.2227L25.0295 18.7991C24.3586 17.6594 23.017 17.6594 22.3585 18.7991L1.11468 54.9857C0.418984 56.1572 1.07742 57.8351 2.23278 57.8351H6.39462C7.5127 57.8351 8.55624 57.1702 9.22712 56.0305L22.607 33.2516C23.1536 32.3334 24.2468 32.3334 24.781 33.2516L28.5452 39.6468L32.9058 47.0709L38.1609 56.0305C38.8318 57.1702 39.8753 57.8351 40.9934 57.8351H45.1553C46.3106 57.8351 46.9566 56.1572 46.2733 54.9857Z" fill="url(#paint0_linear_1_257)"/>
<path d="M46.2733 3.72879L37.2664 19.0677L32.9058 26.4918L25.0295 39.9154C24.3586 41.0551 23.017 41.0551 22.3585 39.9154L1.11468 3.72879C0.418984 2.55734 1.07742 0.879429 2.23278 0.879429H6.39462C7.5127 0.879429 8.55624 1.54431 9.22712 2.68403L22.607 25.4629C23.1536 26.3811 24.2468 26.3811 24.781 25.4629L28.5452 19.0677L32.9058 11.6436L38.1609 2.68403C38.8318 1.54431 39.8753 0.879429 40.9934 0.879429H45.1553C46.3106 0.879429 46.9566 2.55734 46.2733 3.72879Z" fill="url(#paint1_linear_1_257)"/>
</g>
<path d="M53.4 23.2L61.464 23.2L61.464 52.512L73.624 52.512L73.624 60L53.4 60L53.4 23.2ZM77.016 52.512L77.016 60L97.496 60V52.512L77.016 52.512ZM103.245 23.2V55.648L110.541 60L123.725 60V52.512L111.309 52.512L111.309 23.2H103.245ZM147.341 23.2V55.648L140.109 60H126.861V52.512H139.277V23.2L147.341 23.2ZM158.838 23.2H166.134L179.318 35.616V45.28L166.902 33.568V60H158.838V23.2ZM202.934 23.2L195.702 23.2L182.454 35.616V45.28L194.87 33.568V60H202.934V23.2ZM215.713 23.2H223.009L236.193 35.616V45.28L223.777 33.312V60H215.713V23.2ZM251.745 49.632V23.2L259.809 23.2V60H252.257L239.073 47.328V37.984L251.745 49.632ZM271.308 23.2H279.372V60H271.308V23.2Z" fill="url(#paint2_linear_1_257)"/>
<defs>
<linearGradient id="paint0_linear_1_257" x1="0.829956" y1="37.8897" x2="46.5527" y2="37.8897" gradientUnits="userSpaceOnUse">
<stop stop-color="#873AAA"/>
<stop offset="1" stop-color="#DF007F"/>
</linearGradient>
<linearGradient id="paint1_linear_1_257" x1="0.829956" y1="20.8248" x2="46.5527" y2="20.8248" gradientUnits="userSpaceOnUse">
<stop stop-color="#873AAA"/>
<stop offset="1" stop-color="#DF007F"/>
</linearGradient>
<linearGradient id="paint2_linear_1_257" x1="47" y1="40" x2="285" y2="40" gradientUnits="userSpaceOnUse">
<stop stop-color="#873AAA"/>
<stop offset="1" stop-color="#DF007F"/>
</linearGradient>
<clipPath id="clip0_1_257">
<rect width="47" height="61" fill="white"/>
</clipPath>
</defs>
</svg>
