<svg width="20" height="14" viewBox="0 0 20 14" fill="none" xmlns="http://www.w3.org/2000/svg">
<path d="M19.02 2.94C19.02 2.94 18.84 1.62 18.24 1.02C17.52 0.24 16.68 0.24 16.32 0.18C13.62 1.07288e-07 9.6 0 9.6 0C9.6 0 5.58 1.07288e-07 2.88 0.18C2.52 0.24 1.68 0.24 0.96 1.02C0.36 1.62 0.18 2.94 0.18 2.94C0.18 2.94 0 4.5 0 6.06L0 7.5C0 9.06 0.18 10.62 0.18 10.62C0.18 10.62 0.36 11.94 0.96 12.54C1.68 13.32 2.64 13.26 3.06 13.38C4.62 13.5 9.6 13.56 9.6 13.56C9.6 13.56 13.62 13.56 16.32 13.38C16.68 13.32 17.52 13.32 18.24 12.54C18.84 11.94 19.02 10.62 19.02 10.62C19.02 10.62 19.2 9.06 19.2 7.5L19.2 6.06C19.2 4.5 19.02 2.94 19.02 2.94ZM7.62 9.3L7.62 3.9L12.78 6.6L7.62 9.3Z" fill="#FF4C4C"/>
</svg>
